# xmcd
#
# Track frame offsets:
#	150
#	13608
#	28947
#	42117
#	57078
#	70243
#	83455
#	98686
#	117284
#	133454
#	151085
#
# Disc length: 2250 seconds
#
# Revision: 1
# Processed by: cddbd v1.5.2PL0 Copyright (c) Steve Scherf et al.
# Submitted via: audiograbber 1.83.01
#
DISCID=8508c80b
DTITLE=Joey and Rory - Album Number Two
DYEAR=2010
DGENRE=Country
TTITLE0=Album Number Two
TTITLE1=That's Important To Me
TTITLE2=All You Need Is Me
TTITLE3=Born To Be Your Woman
TTITLE4=Baby I'll Come Back To You
TTITLE5=The Horse Nobody Could Ride
TTITLE6=Farm To Fame
TTITLE7=Where Jesus Is
TTITLE8=You Ain't Right
TTITLE9=My Ol' Man
TTITLE10=This Song's For You
EXTD=
EXTT0=
EXTT1=
EXTT2=
EXTT3=
EXTT4=
EXTT5=
EXTT6=
EXTT7=
EXTT8=
EXTT9=
EXTT10=
PLAYORDER=
